<?xml version="1.0" encoding="utf-8"?>
<!-- Generator: Adobe Illustrator 24.0.1, SVG Export Plug-In . SVG Version: 6.00 Build 0)  -->
<svg version="1.1" id="Warstwa_1" xmlns="http://www.w3.org/2000/svg" xmlns:xlink="http://www.w3.org/1999/xlink" x="0px" y="0px"
	 viewBox="0 0 54 54" style="enable-background:new 0 0 54 54;" xml:space="preserve">
<style type="text/css">
	.st0{fill:none;stroke:#0052A5;stroke-width:1.68;stroke-linecap:round;stroke-linejoin:round;}
	.st1{fill:#FFFFFF;stroke:#0052A5;stroke-width:1.68;stroke-linecap:round;stroke-linejoin:round;}
</style>
<title>brexit-mpit</title>
<line class="st0" x1="8.3" y1="13.5" x2="2.3" y2="13.5"/>
<path class="st0" d="M2.3,13.5v15.6c0.1,2.8,2.5,5,5.3,4.9h38.8c2.8,0.1,5.2-2.1,5.3-4.9v-26H8.3v23.4"/>
<path id="Path-43" class="st0" d="M38.2,9.8H13.9"/>
<path id="Path-43-2" class="st0" d="M28.3,17.3H13.9"/>
<path id="Path-43-3" class="st0" d="M25,24.8H13.9"/>
<path class="st1" d="M38.3,43.6L38.3,43.6c-3.6,0-6.6-3-6.6-6.6v-9.2c0-3.6,3-6.6,6.6-6.6l0,0c3.6,0,6.6,3,6.6,6.6V37
	C44.8,40.6,41.9,43.5,38.3,43.6z"/>
<line class="st0" x1="35.2" y1="28.1" x2="31.7" y2="28.1"/>
<line class="st0" x1="35.2" y1="32.4" x2="31.7" y2="32.4"/>
<line class="st0" x1="35.2" y1="36.7" x2="31.7" y2="36.7"/>
<line class="st0" x1="44.8" y1="28.1" x2="41.3" y2="28.1"/>
<line class="st0" x1="44.8" y1="32.4" x2="41.3" y2="32.4"/>
<line class="st0" x1="44.8" y1="36.7" x2="41.3" y2="36.7"/>
<path class="st0" d="M28.5,38c0.7,5.4,5.6,9.2,11.1,8.5c4.5-0.6,8-4.1,8.5-8.5"/>
<line class="st0" x1="38.3" y1="46.6" x2="38.3" y2="50.9"/>
<line class="st0" x1="33.1" y1="50.9" x2="43.8" y2="50.9"/>
</svg>
