<?xml version="1.0" encoding="utf-8"?>
<!-- Generator: Adobe Illustrator 25.0.1, SVG Export Plug-In . SVG Version: 6.00 Build 0)  -->
<svg version="1.1" id="Warstwa_1" xmlns="http://www.w3.org/2000/svg" xmlns:xlink="http://www.w3.org/1999/xlink" x="0px" y="0px"
	 viewBox="0 0 54 54" style="enable-background:new 0 0 54 54;" xml:space="preserve">
<style type="text/css">
	.st0{fill:none;stroke:#0052A5;stroke-width:1.68;}
	.st1{fill:none;stroke:#0052A5;stroke-width:1.68;stroke-linecap:round;stroke-linejoin:round;}
	.st2{fill:#0052A5;}
</style>
<desc>Created with Sketch.</desc>
<circle id="Oval" class="st0" cx="27.9" cy="18.1" r="9.9"/>
<path id="Path-4_3_" class="st1" d="M27.9,48.9H8.5c0-11.6,6.4-17.3,19.3-17.3s19.3,5.8,19.3,17.3C47.2,48.9,27.9,48.9,27.9,48.9z"
	/>
<circle class="st2" cx="29.9" cy="24.3" r="1.9"/>
<path class="st1" d="M39,19.7c-1.4,3.4-3.9,5-9.1,4.7"/>
<path class="st1" d="M15.1,17c0-7,5.7-12.7,12.7-12.7S40.5,10,40.5,17"/>
<path class="st2" d="M37.7,14.2c2,0,3.7,1.6,3.7,3.7s-1.6,3.7-3.7,3.7"/>
<path class="st2" d="M17.9,14.2c-2,0-3.7,1.6-3.7,3.7s1.6,3.7,3.7,3.7"/>
</svg>
