<?xml version="1.0" encoding="utf-8"?>
<!-- Generator: Adobe Illustrator 25.0.1, SVG Export Plug-In . SVG Version: 6.00 Build 0)  -->
<svg version="1.1" id="czat-bot" xmlns="http://www.w3.org/2000/svg" xmlns:xlink="http://www.w3.org/1999/xlink" x="0px" y="0px"
	 viewBox="0 0 55 55" style="enable-background:new 0 0 55 55;" xml:space="preserve">
<style type="text/css">
	.st0{fill:#FFFFFF;stroke:#0052A5;stroke-width:1.68;stroke-linecap:round;stroke-linejoin:round;stroke-miterlimit:10;}
	.st1{fill:none;stroke:#0052A5;stroke-width:1.68;stroke-linecap:round;stroke-linejoin:round;stroke-miterlimit:10;}
</style>
<path id="Path" class="st0" d="M26,44.1h4.3"/>
<path id="Path_1_" class="st1" d="M5.5,41.1v1.2c0,2.1,2.4,3.9,5.3,3.9h34.7c2.9,0,5.3-1.8,5.3-3.9v-1.2H5.5z"/>
<path id="Path_2_" class="st1" d="M8,24.8V41h39.3v0.1V18c0-0.9-0.6-1.6-1.5-1.6H29.6"/>
<circle class="st1" cx="38" cy="27.8" r="3.5"/>
<path class="st1" d="M31.3,40.7c0-3.7,3-6.7,6.7-6.7c3.7,0,6.7,3,6.7,6.7H31.3z"/>
<path class="st1" d="M26.7,7.9H7.8c-1.5,0-2.7,1.2-2.7,2.7v11.2c0,1.5,1.2,2.7,2.7,2.7h12.1l8.8,5.9l-2.8-5.9h0.8
	c1.5,0,2.7-1.2,2.7-2.7V10.5C29.3,9.1,28.1,7.9,26.7,7.9z"/>
<line class="st1" x1="8.5" y1="12.5" x2="24.2" y2="12.5"/>
<line class="st1" x1="8.6" y1="16.4" x2="24.2" y2="16.4"/>
<line class="st1" x1="12.4" y1="20.2" x2="24.2" y2="20.2"/>
</svg>
