<?xml version="1.0" encoding="utf-8"?>
<!-- Generator: Adobe Illustrator 25.1.0, SVG Export Plug-In . SVG Version: 6.00 Build 0)  -->
<svg version="1.1" id="ankieta" xmlns="http://www.w3.org/2000/svg" xmlns:xlink="http://www.w3.org/1999/xlink" x="0px" y="0px"
	 viewBox="0 0 54 54" style="enable-background:new 0 0 54 54;" xml:space="preserve">
<style type="text/css">
	.st0{fill:none;stroke:#0052A5;stroke-width:1.4784;stroke-linecap:round;stroke-linejoin:round;}
	.st1{fill:none;stroke:#0052A5;stroke-width:1.6051;stroke-linecap:round;stroke-linejoin:round;}
</style>
<polygon class="st0" points="37.3,38.4 37.3,49.7 4.5,49.7 4.5,4.3 29.7,4.3 37.3,11.7 37.3,28 "/>
<path class="st0" d="M17.9,16.3H32 M17.9,19h11.2 M17.9,27.4H32 M17.9,30.1h11.2"/>
<path class="st0" d="M10.2,15.3H15v4.8h-4.8V15.3z M10.2,26.4H15v4.8h-4.8V26.4z"/>
<line class="st0" x1="17.9" y1="38.2" x2="32" y2="38.2"/>
<line class="st0" x1="17.9" y1="40.9" x2="29.1" y2="40.9"/>
<path class="st0" d="M10.2,37.3H15v4.8h-4.8V37.3z"/>
<path class="st0" d="M46.5,7.4L46.5,7.4c-1.9,0-3.5,1.5-3.5,3.4v2h7v-1.9C50.1,9,48.5,7.4,46.5,7.4z"/>
<rect x="43" y="12.7" class="st0" width="7" height="26.6"/>
<polyline class="st1" points="49.9,39.4 46.5,45.8 43.2,39.4 "/>
</svg>
